<svg id="captura_foto_imagen" xmlns="http://www.w3.org/2000/svg" width="126.333" height="126.333" viewBox="0 0 126.333 126.333">
  <g id="color" transform="translate(3.948 3.948)">
    <g id="Grupo_19" data-name="Grupo 19">
      <path id="Trazado_51" data-name="Trazado 51" d="M108.66,119.187H11.278A10.525,10.525,0,0,1,.75,108.66V11.278A10.525,10.525,0,0,1,11.278.75H108.66a10.525,10.525,0,0,1,10.528,10.528V108.66A10.525,10.525,0,0,1,108.66,119.187Z" transform="translate(-0.75 -0.75)" fill="#2196f3"/>
    </g>
    <g id="Grupo_20" data-name="Grupo 20" transform="translate(17.108 6.564)">
      <path id="Trazado_52" data-name="Trazado 52" d="M88.222,37.6V48.388c-17.634-.421-13.16-.053-18.055-.053-8.054,0-16.055-14.844-16.055-14.844s-1.421,9.37,4,16.95C38.057,50.441,30,29.333,30,29.333c0,12.739-14,19-14,19L4,53.7v-16C4,20.594,15.054,14.278,22.9,12.909c1.737-4.158,7-10.475,23.108-10.9C58.481,1.7,70.588,6.066,78.431,13.7A32.556,32.556,0,0,1,88.222,37.6Z" transform="translate(-4 -1.997)" fill="#607d8b"/>
    </g>
    <g id="Grupo_21" data-name="Grupo 21" transform="translate(17.108 33.899)">
      <path id="Trazado_53" data-name="Trazado 53" d="M88.222,26.245v8.685a49.775,49.775,0,0,1-3.737,18.9c-.948,2.158-3,5.79-3.211,6.211-7.9,13.107-17.581,25.109-35.163,25.109-18.055,0-28.057-12.9-35.479-25.53-.053-.105-2.053-3.79-2.9-5.738A49.381,49.381,0,0,1,4,34.983V31.562l12-5.369s14-6.264,14-19c0,0,8.054,21.108,28.109,21.108-5.422-7.58-4-16.95-4-16.95s8,14.844,16.055,14.844c4.9,0,.421-.368,18.055.053Z" transform="translate(-4 -7.19)" fill="#ffcc80"/>
    </g>
  </g>
  <g id="_x31__x2C_5" transform="translate(0 0)">
    <g id="Grupo_22" data-name="Grupo 22" transform="translate(21.056 10.522)">
      <path id="Trazado_54" data-name="Trazado 54" d="M46.111,107.282c-18.076,0-28.078-12.891-35.468-25.5-.068-.116-2.074-3.827-2.9-5.753A49.082,49.082,0,0,1,4,57.139V37.667C4,20.56,15.075,14.285,22.9,12.906c1.732-4.164,7.017-10.465,23.1-10.886C58.46,1.652,70.572,6.053,78.416,13.7a32.527,32.527,0,0,1,9.807,23.893V57.06A49.612,49.612,0,0,1,84.5,75.946c-.947,2.2-2.99,5.832-3.221,6.243C73.383,95.265,63.708,107.282,46.111,107.282ZM47.285,9.9c-.353,0-.716.005-1.069.011-12.412.332-16.065,4.6-16.265,6.8a4.144,4.144,0,0,1-3.858,3.79c-1.432.047-14.2.942-14.2,17.166V57.133a41.122,41.122,0,0,0,3.137,15.834c.705,1.658,2.485,4.927,2.485,4.927,7.538,12.854,15.323,21.492,28.593,21.492,12.96,0,20.455-8.106,28.341-21.182s1.974-3.485,2.764-5.322a41.6,41.6,0,0,0,3.111-15.829V37.588A24.48,24.48,0,0,0,72.91,19.354C66.872,13.475,57.139,9.9,47.285,9.9Z" transform="translate(-4 -1.999)"/>
    </g>
    <g id="Grupo_23" data-name="Grupo 23" transform="translate(21.053 33.909)">
      <path id="Trazado_55" data-name="Trazado 55" d="M7.95,36.91a3.948,3.948,0,0,1-1.611-7.554L14.4,25.751c.105-.047,11.67-5.422,11.67-15.355A3.948,3.948,0,0,1,33.712,8.99c.247.637,5.459,13.744,17.623,17.523A30.675,30.675,0,0,1,50.2,13.944a3.948,3.948,0,0,1,7.369-1.29C60.363,17.8,66.3,25.4,70.154,25.4c1.405,0,1.984-.026,2.585-.058,1.39-.063,2.8-.126,11.607.026a3.948,3.948,0,0,1-.074,7.9H84.2c-8.522-.163-9.9-.1-11.086-.037-.69.032-1.358.063-2.958.063a14.2,14.2,0,0,1-8.312-3.132,3.947,3.947,0,0,1-3.727,5.248c-13.433,0-22.014-8.054-26.835-14.76-4.506,8.117-13.165,12.081-13.66,12.3L9.556,36.552a3.694,3.694,0,0,1-1.605.358Z" transform="translate(-3.999 -6.442)"/>
    </g>
    <g id="Grupo_24" data-name="Grupo 24" transform="translate(48.113 84.731)">
      <path id="Trazado_56" data-name="Trazado 56" d="M24.2,28.748A19.292,19.292,0,0,1,10.25,22.794a3.952,3.952,0,0,1,5.68-5.5,11.68,11.68,0,0,0,16.55,0,3.952,3.952,0,0,1,5.68,5.5A19.351,19.351,0,0,1,24.2,28.748Z" transform="translate(-9.14 -16.097)"/>
    </g>
    <g id="Grupo_25" data-name="Grupo 25" transform="translate(82.39)">
      <path id="Trazado_57" data-name="Trazado 57" d="M55.647,43.943A3.949,3.949,0,0,1,51.7,40V14.476a6.589,6.589,0,0,0-6.58-6.58H19.6a3.948,3.948,0,1,1,0-7.9H45.119A14.491,14.491,0,0,1,59.595,14.476V40A3.949,3.949,0,0,1,55.647,43.943Z" transform="translate(-15.652 0)"/>
    </g>
    <g id="Grupo_26" data-name="Grupo 26">
      <path id="Trazado_58" data-name="Trazado 58" d="M3.948,43.943A3.949,3.949,0,0,1,0,40V14.476A14.491,14.491,0,0,1,14.476,0H40a3.948,3.948,0,1,1,0,7.9H14.476a6.589,6.589,0,0,0-6.58,6.58V40a3.949,3.949,0,0,1-3.948,3.948Z" transform="translate(0 0)"/>
    </g>
    <g id="Grupo_27" data-name="Grupo 27" transform="translate(82.39 82.39)">
      <path id="Trazado_59" data-name="Trazado 59" d="M45.119,59.595H19.6a3.948,3.948,0,1,1,0-7.9H45.119a6.589,6.589,0,0,0,6.58-6.58V19.6a3.948,3.948,0,1,1,7.9,0V45.119A14.491,14.491,0,0,1,45.119,59.595Z" transform="translate(-15.652 -15.652)"/>
    </g>
    <g id="Grupo_28" data-name="Grupo 28" transform="translate(0 82.39)">
      <path id="Trazado_60" data-name="Trazado 60" d="M40,59.595H14.476A14.491,14.491,0,0,1,0,45.119V19.6a3.948,3.948,0,1,1,7.9,0V45.119a6.589,6.589,0,0,0,6.58,6.58H40a3.948,3.948,0,1,1,0,7.9Z" transform="translate(0 -15.652)"/>
    </g>
  </g>
</svg>
