<svg id="completado" xmlns="http://www.w3.org/2000/svg" width="84.667" height="84.667" viewBox="0 0 84.667 84.667">
  <g id="Grupo_31" data-name="Grupo 31" transform="translate(28.223 29.987)">
    <g id="Grupo_30" data-name="Grupo 30">
      <path id="Trazado_61" data-name="Trazado 61" d="M160.482,137.035a3.527,3.527,0,0,0-4.988,0l-15.145,15.143-6.325-6.324a3.527,3.527,0,0,0-4.988,4.988l8.819,8.819a3.526,3.526,0,0,0,4.988,0l17.639-17.639A3.527,3.527,0,0,0,160.482,137.035Z" transform="translate(-128.002 -136.002)" fill="#fff"/>
    </g>
  </g>
  <g id="Grupo_33" data-name="Grupo 33" transform="translate(0 0)">
    <g id="Grupo_32" data-name="Grupo 32">
      <path id="Trazado_62" data-name="Trazado 62" d="M81.139,38.806a3.529,3.529,0,0,0-3.528,3.528A35.275,35.275,0,1,1,67.368,17.477a3.527,3.527,0,1,0,5.006-4.971A42.333,42.333,0,1,0,84.667,42.333,3.529,3.529,0,0,0,81.139,38.806Z" transform="translate(0 0)" fill="#fff"/>
    </g>
  </g>
</svg>
