<svg xmlns="http://www.w3.org/2000/svg" width="69.281" height="63.333" viewBox="0 0 69.281 63.333">
  <g id="error" transform="translate(0 -20.882)">
    <g id="Grupo_34" data-name="Grupo 34" transform="translate(0 20.882)">
      <path id="Trazado_73" data-name="Trazado 73" d="M221.785,333.382a3.56,3.56,0,0,0,0,7.121,3.561,3.561,0,0,0,0-7.121Z" transform="translate(-187.146 -288.876)" fill="#fff"/>
      <path id="Trazado_74" data-name="Trazado 74" d="M67.595,78.006a12.158,12.158,0,0,0,.028-12.3l-22.3-38.624a12.288,12.288,0,0,0-21.334-.014L1.655,65.729A12.335,12.335,0,0,0,12.337,84.215H56.885A12.265,12.265,0,0,0,67.595,78.006Zm-4.842-2.791a6.73,6.73,0,0,1-5.882,3.4H12.322a6.638,6.638,0,0,1-5.811-3.333A6.739,6.739,0,0,1,6.5,68.492L28.829,29.84a6.707,6.707,0,0,1,11.65.014L62.8,68.507A6.65,6.65,0,0,1,62.753,75.215Z" transform="translate(0 -20.882)" fill="#fff"/>
      <path id="Trazado_75" data-name="Trazado 75" d="M220.474,157.277a3.872,3.872,0,0,0-2.749,3.888c.085,1.125.157,2.264.242,3.39.242,4.287.484,8.488.726,12.775a2.609,2.609,0,0,0,2.663,2.507,2.663,2.663,0,0,0,2.663-2.592c0-.883,0-1.695.085-2.592.157-2.749.328-5.5.484-8.246.085-1.78.242-3.56.328-5.341a4.4,4.4,0,0,0-.328-1.78A3.57,3.57,0,0,0,220.474,157.277Z" transform="translate(-186.717 -137.765)" fill="#fff"/>
    </g>
  </g>
</svg>
