<svg xmlns="http://www.w3.org/2000/svg" width="170" height="169.973" viewBox="0 0 170 169.973">
  <g id="imagen_fiebre" transform="translate(0.017 -0.022)">
    <g id="Filled" transform="translate(2.644 2.671)">
      <path id="Trazado_21" data-name="Trazado 21" d="M281.03,112h-66.4v26.084L206,149.183l8.632,5.312v11.952a9.3,9.3,0,0,0,9.3,9.3h19.92v13.28a86.743,86.743,0,0,0-7.691,10.621c21.178-.114,44.874-13.277,44.874-13.277Z" transform="translate(-140.265 -77.473)" fill="#ffdfc5"/>
      <path id="Trazado_22" data-name="Trazado 22" d="M341.708,188.771a77.284,77.284,0,0,1-37.183,40.715v10.82a86.744,86.744,0,0,0-7.691,10.621c21.178-.114,44.874-13.277,44.874-13.277Z" transform="translate(-200.943 -128.756)" fill="#ffd5c7"/>
      <path id="Trazado_23" data-name="Trazado 23" d="M192.067,15.492s-2.656,37.183,25.663,37.659h24.734c4.574-.476,7.968,2.18,7.968,6.791,0,13.981.033,35.228,21.248,43.2,33.426-42.6,27.777-84.567,7.6-85.3-10.255-23.591-56.4,2.666-76.995,2.666-7.723,0-10.216-5.01-10.216-5.01Z" transform="translate(-130.913 -8)" fill="#68676b"/>
      <path id="Trazado_24" data-name="Trazado 24" d="M406.16,46.16a73.055,73.055,0,0,1-35.928,54.529c1.527,11.153,6.2,22.567,20.507,27.941C419.29,92.24,419.329,56.323,406.16,46.16Z" transform="translate(-249.973 -33.491)" fill="#58575b"/>
      <path id="Trazado_25" data-name="Trazado 25" d="M351.968,167.147c0-10.624,13.28-10.624,13.28,2.656,0,7.334-3.29,13.28-10.624,13.28H344V167.147Z" transform="translate(-232.45 -109.192)" fill="#ffdfc5"/>
      <path id="Trazado_26" data-name="Trazado 26" d="M50.494,135.678V61.312A5.312,5.312,0,0,0,45.183,56H23.935a5.312,5.312,0,0,0-5.312,5.312v74.366a26.56,26.56,0,1,0,31.871,0Z" transform="translate(-7.999 -40.064)" fill="#e2dbd5"/>
      <path id="Trazado_27" data-name="Trazado 27" d="M8,268.42a26.56,26.56,0,1,0,42.493-21.55V222.453a59.567,59.567,0,0,1-31.871,15.725v8.692A26.519,26.519,0,0,0,8,268.42Z" transform="translate(-7.999 -151.256)" fill="#d4ccc7"/>
      <path id="Trazado_28" data-name="Trazado 28" d="M269.557,349.277c-6.082,9.712-13.557,25.17-13.557,42.5v2.656h77.022v-2.656c0-18.592-2.656-34.527-18.592-55.775C314.431,336,290.734,349.163,269.557,349.277Z" transform="translate(-173.665 -227.106)" fill="#96e0d7"/>
      <path id="Trazado_29" data-name="Trazado 29" d="M295.936,130.592a7.968,7.968,0,1,1-15.936,0c0-4.4,7.968-18.592,7.968-18.592S295.936,126.191,295.936,130.592Z" transform="translate(-189.698 -77.473)" fill="#afefde"/>
      <path id="Trazado_30" data-name="Trazado 30" d="M61.245,227.409V184H50.621v43.409a15.936,15.936,0,1,0,10.624,0Z" transform="translate(-29.373 -125.569)" fill="#f27c6d"/>
      <path id="Trazado_31" data-name="Trazado 31" d="M324.177,382.064a69.125,69.125,0,0,1-67.905,34.76c-.174,1.882-.271,3.79-.271,5.722V425.2h77.022v-2.656C333.022,408.677,331.543,396.285,324.177,382.064Z" transform="translate(-173.665 -257.877)" fill="#97d0dd"/>
      <path id="Trazado_32" data-name="Trazado 32" d="M359.936,392A15.936,15.936,0,0,0,344,407.936v23.9h31.871v-23.9A15.936,15.936,0,0,0,359.936,392Z" transform="translate(-232.45 -264.515)" fill="#afefde"/>
      <path id="Trazado_33" data-name="Trazado 33" d="M73.236,333.054A35.838,35.838,0,0,1,46.172,349.8a15.928,15.928,0,1,0,27.064-16.748Z" transform="translate(-33.499 -225.138)" fill="#ed6464"/>
      <circle id="Elipse_6" data-name="Elipse 6" cx="5.312" cy="5.312" r="5.312" transform="translate(15.936 108.894)" fill="#ffa596"/>
      <circle id="Elipse_7" data-name="Elipse 7" cx="2.656" cy="2.656" r="2.656" transform="translate(29.216 103.582)" fill="#ffa596"/>
      <path id="Trazado_34" data-name="Trazado 34" d="M294.7,148.878a22.564,22.564,0,0,1-13.731,8.585,7.968,7.968,0,0,0,15.615-2.236A20.408,20.408,0,0,0,294.7,148.878Z" transform="translate(-190.342 -102.107)" fill="#96e0d7"/>
      <circle id="Elipse_8" data-name="Elipse 8" cx="9.296" cy="9.296" r="9.296" transform="translate(114.206 5.312)" fill="#8a8a8c"/>
      <circle id="Elipse_9" data-name="Elipse 9" cx="3.984" cy="3.984" r="3.984" transform="translate(135.453 21.248)" fill="#8a8a8c"/>
      <path id="Trazado_35" data-name="Trazado 35" d="M374.377,165.316a30.512,30.512,0,0,1-12.5,21.663h4.688c7.334,0,10.624-5.945,10.624-13.28C377.191,169.759,376.022,166.988,374.377,165.316Z" transform="translate(-244.393 -113.088)" fill="#ffd5c7"/>
      <g id="Grupo_18" data-name="Grupo 18" transform="translate(119.518 135.453)">
        <circle id="Elipse_10" data-name="Elipse 10" cx="5.312" cy="5.312" r="5.312" fill="#d5f7ed"/>
        <circle id="Elipse_11" data-name="Elipse 11" cx="2.656" cy="2.656" r="2.656" transform="translate(10.624 10.624)" fill="#d5f7ed"/>
      </g>
    </g>
    <g id="Outline" transform="translate(-0.017 0.022)">
      <path id="Trazado_36" data-name="Trazado 36" d="M408.254,54.969c3.106-13.206,2.641-25.167-1.312-33.682-3.036-6.54-7.93-10.5-13.9-11.3-5.852-11-18.924-11.043-31.169-8.8-3.453.631-2.5,5.861.956,5.225,27.117-4.963,23.713,8.577,28.382,8.747,5.907.214,9.192,4.665,10.908,8.362,3.4,7.332,3.753,18.35.959,30.229C399.9,67.289,392.917,81.371,382.847,94.59a26.423,26.423,0,0,1-10.9-8.513c-2.092-2.819-6.361.343-4.265,3.167A32.151,32.151,0,0,0,381.058,99.6c.172,12.06-.4,12.321.531,13.56,27,36,12.8,56.837,20.717,56.837a2.656,2.656,0,0,0,2.656-2.656c0-19.455-3.128-35.767-18.592-56.656V98.719c10.895-14.07,18.457-29.179,21.884-43.75Z" transform="translate(-240.288 -0.022)"/>
      <path id="Trazado_37" data-name="Trazado 37" d="M365.312,175.083c-3.512,0-3.516,5.312,0,5.312,17.486,0,16.894-28.911,3.429-28.911-4.344,0-8.741,3.545-8.741,10.319,0,3.511,5.312,3.517,5.312,0,0-7.271,7.968-6.859,7.968,2.656,0,3.194-.777,10.624-7.968,10.624Z" transform="translate(-240.477 -101.2)"/>
      <path id="Trazado_38" data-name="Trazado 38" d="M354.592,384A18.613,18.613,0,0,0,336,402.592v21.248c0,3.511,5.312,3.516,5.312,0V402.592a13.28,13.28,0,1,1,26.559,0v21.248c0,3.511,5.312,3.516,5.312,0V402.592A18.613,18.613,0,0,0,354.592,384Z" transform="translate(-224.445 -256.522)"/>
      <path id="Trazado_39" data-name="Trazado 39" d="M254.7,126.888c-7.4,3.114-17.807,6.734-28.068,7.755,7.835-11.219,4.254-1.383,5.2-20.966a2.656,2.656,0,0,0-2.656-2.656H209.246a6.648,6.648,0,0,1-6.64-6.64V92.429c0-2.449-2.465-2.627-7.372-6.021,6.646-8.835,7.372-8.8,7.372-10.391V61.433a23.934,23.934,0,0,0,5.315,1.366,2.657,2.657,0,0,0,.454-5.272c-13.2-2.307-18.135-15.294-18.939-28.667,8.16,4.242,21.792-.465,35.832-4.548,3.37-.989,1.88-6.084-1.494-5.1-15.329,4.795-30.764,9.347-34.667,2.486a2.6,2.6,0,0,0-2.859-1.453,2.682,2.682,0,0,0-2.158,2.466,60.456,60.456,0,0,0,1.843,17.953c2.165,8.1,6.025,14.149,11.361,17.934V75.108c-11.389,15.328-11.824,11,0,18.806v10.467a11.965,11.965,0,0,0,11.952,11.952H226.51v9.645a94.237,94.237,0,0,0-6.783,9.391,2.654,2.654,0,0,0-1.159,1.859c-7.8,12.781-13.306,27.817-13.306,42.847,0,3.511,5.312,3.516,5.312,0,0-15.938,6.684-30.389,12.433-39.872,12.249-.4,25.016-4.745,33.748-8.419C260,130.42,257.933,125.525,254.7,126.888Z" transform="translate(-122.923 -12.758)"/>
      <path id="Trazado_40" data-name="Trazado 40" d="M280.308,105.355C278.921,107.826,272,120.4,272,125.247a10.624,10.624,0,1,0,21.248,0c0-4.849-6.921-17.421-8.308-19.892a2.656,2.656,0,0,0-4.632,0Zm2.316,25.2a5.318,5.318,0,0,1-5.312-5.312c0-1.805,2.468-7.464,5.312-12.983,2.844,5.517,5.312,11.176,5.312,12.983a5.318,5.318,0,0,1-5.312,5.312Z" transform="translate(-181.692 -69.479)"/>
      <path id="Trazado_41" data-name="Trazado 41" d="M47.8,129.045V55.968A7.977,7.977,0,0,0,39.828,48H18.58a7.977,7.977,0,0,0-7.968,7.968v73.079c-21.29,17.6-8.293,51.75,18.6,51.75C56.757,180.8,68.717,146.273,47.8,129.045ZM28.627,175.479c-22.2-.522-32.1-29.246-13.763-43.02,2.014-1.513.676-1.456,1.062-47.276h7.966c3.512,0,3.516-5.312,0-5.312H15.924V74.559H29.2c3.512,0,3.516-5.312,0-5.312H15.924V63.936h7.968c3.512,0,3.516-5.312,0-5.312H15.924c.161-.718-.9-5.312,2.656-5.312H39.828a2.659,2.659,0,0,1,2.656,2.656c.4,77.2-.959,74.972,1.061,76.491,18.494,13.891,8.355,43.578-14.918,43.02Z" transform="translate(0.017 -32.072)"/>
      <path id="Trazado_42" data-name="Trazado 42" d="M58.617,220.293V178.656A2.656,2.656,0,0,0,55.961,176H45.337a2.656,2.656,0,0,0-2.656,2.656v41.637C24.77,228.808,31,255.678,50.649,255.678,70.27,255.678,76.55,228.82,58.617,220.293Zm-7.968,30.073c-14.828,0-18.459-20.821-4.424-25.8,3.354-1.19,1.11-3.412,1.768-43.256H53.3c.673,40.761-1.476,42.105,1.768,43.256C69.1,229.543,65.482,250.366,50.649,250.366Z" transform="translate(-21.428 -117.577)"/>
      <path id="Trazado_43" data-name="Trazado 43" d="M8,442.693c0,3.511,5.312,3.516,5.312,0S8,439.177,8,442.693Z" transform="translate(-5.338 -293.968)"/>
      <path id="Trazado_44" data-name="Trazado 44" d="M40,458.693c0,3.511,5.312,3.516,5.312,0S40,455.177,40,458.693Z" transform="translate(-26.715 -304.656)"/>
      <path id="Trazado_45" data-name="Trazado 45" d="M120,458.693c0,3.511,5.312,3.516,5.312,0S120,455.177,120,458.693Z" transform="translate(-80.155 -304.656)"/>
      <path id="Trazado_46" data-name="Trazado 46" d="M80,466.693c0,3.512,5.312,3.516,5.312,0S80,463.177,80,466.693Z" transform="translate(-53.435 -310)"/>
      <path id="Trazado_47" data-name="Trazado 47" d="M152,442.693c0,3.511,5.312,3.516,5.312,0S152,439.177,152,442.693Z" transform="translate(-101.531 -293.968)"/>
      <path id="Trazado_48" data-name="Trazado 48" d="M333.312,10.7c0-3.511-5.312-3.516-5.312,0S333.312,14.214,333.312,10.7Z" transform="translate(-219.101 -5.393)"/>
    </g>
  </g>
</svg>
