<svg xmlns="http://www.w3.org/2000/svg" width="19.876" height="17.391" viewBox="0 0 19.876 17.391">
  <g id="login" transform="translate(0 -0.008)">
    <path id="Trazado_7" data-name="Trazado 7" d="M89.473,8.289a4.141,4.141,0,1,1,4.141-4.141A4.145,4.145,0,0,1,89.473,8.289Zm0-7.039a2.9,2.9,0,1,0,2.9,2.9,2.9,2.9,0,0,0-2.9-2.9Zm0,0" transform="translate(-82.019)" fill="#05abdb"/>
    <path id="Trazado_8" data-name="Trazado 8" d="M14.286,263.461H.621A.621.621,0,0,1,0,262.84v-2.9a3.938,3.938,0,0,1,3.934-3.934h7.039a3.938,3.938,0,0,1,3.934,3.934v2.9A.621.621,0,0,1,14.286,263.461ZM1.242,262.219H13.664v-2.277a2.7,2.7,0,0,0-2.691-2.691H3.934a2.7,2.7,0,0,0-2.691,2.691Zm0,0" transform="translate(0 -246.062)" fill="#05abdb"/>
    <path id="Trazado_9" data-name="Trazado 9" d="M306.328,187.918h-7.039a.621.621,0,1,1,0-1.242h7.039a.621.621,0,0,1,0,1.242Zm0,0" transform="translate(-287.074 -179.422)" fill="#05abdb"/>
    <path id="Trazado_10" data-name="Trazado 10" d="M395.293,109.174a.621.621,0,0,1-.439-1.061l2.874-2.874-2.874-2.874a.621.621,0,0,1,.879-.879l3.313,3.313a.621.621,0,0,1,0,.879l-3.313,3.313a.617.617,0,0,1-.44.183Zm0,0" transform="translate(-379.351 -97.365)" fill="#05abdb"/>
  </g>
</svg>
