<svg xmlns="http://www.w3.org/2000/svg" width="141" height="114.828" viewBox="0 0 141 114.828">
  <g id="Capa_x0020_1" transform="translate(-3097 -1760)">
    <rect id="Rect치ngulo_6" data-name="Rect치ngulo 6" width="139" height="33" rx="16.5" transform="translate(3098 1841.828)" fill="#794691"/>
    <g id="_679486328" transform="translate(3109.06 1845.728)">
      <path id="Trazado_1" data-name="Trazado 1" d="M9970,12604.047V12586h3.817v4.861h7.45v3.5h-7.45v10a4.913,4.913,0,0,0,.315,1.845c.214.531.976.792,2.273.792l4.546-.039v3.5h-4.862a.236.236,0,0,1-.135.063.618.618,0,0,1-.144.024h-.316a4.589,4.589,0,0,1-3.95-1.7,7.621,7.621,0,0,1-1.506-3.793c0-.158-.008-.317-.022-.483s-.017-.325-.017-.476Zm14.959,6.413v-19.6h3.539v19.6Zm9.676,0v-13.5a5.956,5.956,0,0,1,2-4.5,7.56,7.56,0,0,1,5.37-1.862,7.417,7.417,0,0,1,3.61.682,5.373,5.373,0,0,1,1.885,1.861,6.863,6.863,0,0,1,2.186-1.751,7.6,7.6,0,0,1,3.682-.792,7.854,7.854,0,0,1,4.839,1.617,4.886,4.886,0,0,1,2.162,4.062v14.189h-3.5v-12.954a2.458,2.458,0,0,0-.072-.547,3.291,3.291,0,0,0-.2-.642,5.343,5.343,0,0,0-1.252-1.75,2.783,2.783,0,0,0-1.979-.792,3.436,3.436,0,0,0-2.565,1.046,4.633,4.633,0,0,0-1.3,2.32c-.03.15-.056.293-.07.428a3.428,3.428,0,0,0-.024.388v12.5h-3.5v-12.233a5.2,5.2,0,0,0-.95-3.16,3.439,3.439,0,0,0-2.954-1.291c-1.576.151-2.613.7-3.1,1.632a6.9,6.9,0,0,0-.768,3.049v12Zm33.6-8.956,9.685-5.5c-.087-.087-.189-.2-.293-.317s-.236-.261-.387-.411a4.244,4.244,0,0,0-1.228-.814,5.317,5.317,0,0,0-2.226-.364,5.68,5.68,0,0,0-4.846,2.224,8.071,8.071,0,0,0-1.655,4.911v.142a6.828,6.828,0,0,0,1.678,4.316,5.929,5.929,0,0,0,4.823,1.954c2.209,0,3.706-.521,4.474-1.566a12.858,12.858,0,0,0,1.893-4.388.1.1,0,0,1,.024-.071.09.09,0,0,0,.015-.063l3.6.27v.863a6.77,6.77,0,0,1-.159,1.409,8.045,8.045,0,0,1-.475,1.457,9.923,9.923,0,0,1-9.368,5.543,10.37,10.37,0,0,1-7.364-2.771,9.282,9.282,0,0,1-2.954-7.095q0-4.682,2.494-7.185a11.426,11.426,0,0,1,5.456-3.183c.429-.086.832-.158,1.212-.205a10.834,10.834,0,0,1,1.156-.064,9.149,9.149,0,0,1,5.772,1.862,14.863,14.863,0,0,1,3.912,4.545l-13.644,7.364Z" transform="translate(-9927.635 -12586)" fill="#fff"/>
      <path id="Trazado_2" data-name="Trazado 2" d="M4659.4,13191.676v9.7h-4.847v-9.7a4.8,4.8,0,0,0-.657-2.415,4.518,4.518,0,0,0-1.813-1.789,4.82,4.82,0,0,0-4.751,0,4.413,4.413,0,0,0-1.806,1.789,4.884,4.884,0,0,0-.657,2.415v9.7h-4.838v-9.7a9.76,9.76,0,0,1,1.3-4.846,8.9,8.9,0,0,1,3.611-3.571,9.626,9.626,0,0,1,9.519,0,9.053,9.053,0,0,1,3.634,3.571A9.765,9.765,0,0,1,4659.4,13191.676Zm-39.4.017V13182h4.838v9.692a4.8,4.8,0,0,0,.665,2.423,4.406,4.406,0,0,0,1.8,1.79,4.935,4.935,0,0,0,2.383.625,4.88,4.88,0,0,0,2.368-.625,4.508,4.508,0,0,0,1.821-1.79,4.865,4.865,0,0,0,.658-2.423V13182h4.846v9.692a9.687,9.687,0,0,1-1.314,4.854,9.037,9.037,0,0,1-3.635,3.579,9.778,9.778,0,0,1-4.743,1.251,9.917,9.917,0,0,1-4.775-1.251,8.935,8.935,0,0,1-3.611-3.579A9.836,9.836,0,0,1,4620,13191.692Z" transform="translate(-4620 -13177.28)" fill="#fff"/>
    </g>
    <rect id="Rect치ngulo_7" data-name="Rect치ngulo 7" width="36.064" height="9.66" rx="4.83" transform="matrix(0.728, -0.686, 0.686, 0.728, 3161.118, 1831.571)" fill="#794691"/>
    <path id="Trazado_3" data-name="Trazado 3" d="M7853.154,10150h28.238a5.179,5.179,0,0,1,5.163,5.163h0a5.173,5.173,0,0,1-5.163,5.162h-28.238a5.171,5.171,0,0,1-5.155-5.162h0A5.177,5.177,0,0,1,7853.154,10150Z" transform="translate(-4713.378 -8323.562)" fill="#36b5c1" fill-rule="evenodd"/>
    <path id="Trazado_4" data-name="Trazado 4" d="M3167.453,1760c38.912,0,70.452,29.893,70.452,66.771,0,.57-.008,1.132-.024,1.694a10.129,10.129,0,0,1,.119,1.56c0,4.054-2.344,7.341-5.234,7.341-2.6,0-4.743-2.645-5.163-6.113h-.214q.226-2.459.23-4.965c0-31.485-26.932-57.015-60.15-57.015s-60.15,25.53-60.15,57.015c0,.673.016,1.338.04,2a10.293,10.293,0,0,1,.15,1.734c0,.182-.008.364-.016.546.016.23.039.459.055.681h-.119c-.412,3.469-2.566,6.113-5.155,6.113-2.89,0-5.234-3.286-5.234-7.341,0-.222.008-.436.016-.657-.031-.855-.055-1.726-.055-2.6C3097,1789.893,3128.54,1760,3167.453,1760Z" fill="#794691" fill-rule="evenodd"/>
    <path id="Trazado_5" data-name="Trazado 5" d="M11764.467,4949.509s42.793-1.338,47.472,45.461c-.768,2.526-1.646,3.208-2.746,3.271a3.078,3.078,0,0,1-2.93-2.922c.022-3.753-1.015-38.453-40.79-41.129C11759.122,4952.186,11764.467,4949.509,11764.467,4949.509Z" transform="translate(-8596.745 -3164.248)" fill="#f5ab28" fill-rule="evenodd"/>
    <path id="Trazado_6" data-name="Trazado 6" d="M5864.868,4578.806s-.871-46.15,47.464-50.806c4.719,1.077,6.351,1.338,6.549,4.529.174,2.93-3.279,5.1-5.875,5.5-3.342,1.338-36.775,4.014-37.44,39.451-1.338,5.345-4.68,5.345-4.68,5.345A5.487,5.487,0,0,1,5864.868,4578.806Z" transform="translate(-2745.949 -2746.081)" fill="#05abdb" fill-rule="evenodd"/>
  </g>
</svg>
