<svg xmlns="http://www.w3.org/2000/svg" width="128.414" height="100.667" viewBox="0 0 128.414 100.667"><g transform="translate(-119 -1030)"><path d="M4497,2495.186a2.562,2.562,0,0,0,2.711,2.132,2.177,2.177,0,0,0,2.255-2.132h0c-4.494-37.479-32.8-41.043-39.962-42.186v4.493c.7.137,1.432.274,2.178.412C4498.444,2464.087,4497,2495.186,4497,2495.186Z" transform="translate(-4276.859 -1401.328)" fill="#fefefe" fill-rule="evenodd"/><path d="M183.177,1030a64.2,64.2,0,0,1,64.177,63.918h-.107v.335h-8.5v-.076a55.573,55.573,0,0,0-111.144-.35h0a4.042,4.042,0,0,1-4.127,3.975,4.41,4.41,0,0,1-4.477-3.122h0v-.5A64.173,64.173,0,0,1,183.177,1030Z" fill="#fefefe" fill-rule="evenodd"/><path d="M7990.6,5121.448c-3.351-3.016-5.62-1.066-8.574.138l-.03.228a4.353,4.353,0,0,0,8.6-.365Z" transform="translate(-7743.251 -4027.56)" fill="#fefefe" fill-rule="evenodd"/><path d="M1457.525,2358.713s-1.645-40.982,44.3-44.713h0a4.538,4.538,0,0,1,4.066,4.98,4.716,4.716,0,0,1-4.477,4.538h0s-32.591-.883-35.53,34.83a4.235,4.235,0,0,1-8.361.365Z" transform="translate(-1318.133 -1264.446)" fill="#fefefe" fill-rule="evenodd"/><path d="M2353.813,4924h26.332a4.618,4.618,0,0,1,4.813,4.371h0c0,.183-.015.35-.031.518h-3.045v3.563a5.4,5.4,0,0,1-1.736.29h-26.332a4.618,4.618,0,0,1-4.812-4.371h0A4.618,4.618,0,0,1,2353.813,4924Z" transform="translate(-2196.039 -3834.696)" fill="#fefefe" fill-rule="evenodd"/><path d="M158.579,5671H273.333a6.388,6.388,0,0,1,6.579,6.183V5694.8a6.389,6.389,0,0,1-6.579,6.184H158.579A6.4,6.4,0,0,1,152,5694.8v-17.621A6.4,6.4,0,0,1,158.579,5671Zm42.779,20v-16.539h3.5v4.462h6.823v3.2h-6.823v9.168a4.412,4.412,0,0,0,.289,1.689c.2.488.883.731,2.071.731l4.173-.03v3.2h-4.462a.158.158,0,0,1-.122.061.736.736,0,0,1-.122.03H206.4a4.2,4.2,0,0,1-3.625-1.568,6.992,6.992,0,0,1-1.386-3.473,4.284,4.284,0,0,0-.015-.441c-.015-.152-.015-.3-.015-.441Zm13.706,5.879v-17.956h3.244v17.956Zm8.879,0v-12.366a5.479,5.479,0,0,1,1.828-4.143,7.01,7.01,0,0,1,4.934-1.705,6.825,6.825,0,0,1,3.3.624,4.856,4.856,0,0,1,1.721,1.705,6.391,6.391,0,0,1,2.01-1.6,6.961,6.961,0,0,1,3.381-.729,7.232,7.232,0,0,1,4.432,1.492,4.444,4.444,0,0,1,1.98,3.716v13.006h-3.213V5685a2.017,2.017,0,0,0-.061-.487,2.935,2.935,0,0,0-.183-.594,4.947,4.947,0,0,0-1.142-1.6,2.573,2.573,0,0,0-1.812-.729,3.168,3.168,0,0,0-2.361.959,4.281,4.281,0,0,0-1.188,2.132c-.03.138-.046.259-.061.381a2.953,2.953,0,0,0-.03.366v11.452h-3.213v-11.209a4.754,4.754,0,0,0-.868-2.893,3.114,3.114,0,0,0-2.7-1.188,3.289,3.289,0,0,0-2.848,1.492,6.306,6.306,0,0,0-.7,2.8v11Zm30.794-8.209,8.879-5.041c-.076-.076-.168-.183-.259-.289-.107-.106-.228-.243-.366-.381a3.8,3.8,0,0,0-1.127-.746,4.8,4.8,0,0,0-2.041-.335,5.2,5.2,0,0,0-4.432,2.041,7.341,7.341,0,0,0-1.523,4.491v.138a6.307,6.307,0,0,0,1.538,3.96,5.478,5.478,0,0,0,4.417,1.8c2.026,0,3.4-.487,4.112-1.447a12.136,12.136,0,0,0,1.736-4.02c0-.03,0-.046.015-.062a.092.092,0,0,0,.015-.061l3.29.244v.792a6.458,6.458,0,0,1-.137,1.294,6.571,6.571,0,0,1-.442,1.34,9.132,9.132,0,0,1-8.589,5.071,9.516,9.516,0,0,1-6.747-2.527,8.519,8.519,0,0,1-2.711-6.52,8.953,8.953,0,0,1,2.284-6.578,10.442,10.442,0,0,1,5.01-2.909c.4-.091.761-.151,1.112-.2.335-.03.7-.061,1.051-.061a8.488,8.488,0,0,1,5.3,1.705,13.662,13.662,0,0,1,3.579,4.173l-12.5,6.747Zm-56.105-1.021v8.895h-4.447v-8.895a4.5,4.5,0,0,0-.594-2.208,4.2,4.2,0,0,0-1.66-1.645,4.49,4.49,0,0,0-4.356,0,4.106,4.106,0,0,0-1.66,1.645,4.515,4.515,0,0,0-.609,2.208v8.895h-4.432v-8.895a8.957,8.957,0,0,1,1.188-4.432,8.176,8.176,0,0,1,3.32-3.273,8.8,8.8,0,0,1,8.726,0,8.176,8.176,0,0,1,3.32,3.273A8.817,8.817,0,0,1,198.632,5687.646Zm-36.109.016v-8.879h4.432v8.879a4.333,4.333,0,0,0,.609,2.224,4.072,4.072,0,0,0,1.645,1.645,4.629,4.629,0,0,0,2.193.579,4.514,4.514,0,0,0,2.163-.579,4.145,4.145,0,0,0,1.675-1.645,4.468,4.468,0,0,0,.594-2.224v-8.879h4.447v8.879a8.887,8.887,0,0,1-1.2,4.462,8.216,8.216,0,0,1-3.335,3.274,8.859,8.859,0,0,1-4.34,1.143,9.029,9.029,0,0,1-4.386-1.143,8.142,8.142,0,0,1-3.3-3.274A9.027,9.027,0,0,1,162.524,5687.661Z" transform="translate(-32.497 -4570.32)" fill="#fefefe" fill-rule="evenodd"/><path d="M4119.784,3955.61l16.387-15.443a4.16,4.16,0,0,1,5.878.153h0a4.131,4.131,0,0,1-.213,5.863l-16.387,15.443a4.143,4.143,0,0,1-5.864-.152h0A4.145,4.145,0,0,1,4119.784,3955.61Z" transform="translate(-3938.557 -2864.723)" fill="#fefefe" fill-rule="evenodd"/><circle cx="4.5" cy="4.5" r="4.5" transform="translate(178.743 1089)" fill="#fefefe"/></g></svg>