<svg id="password" xmlns="http://www.w3.org/2000/svg" width="13" height="17.333" viewBox="0 0 13 17.333">
  <path id="Trazado_11" data-name="Trazado 11" d="M11.375,202.833H1.625A1.627,1.627,0,0,1,0,201.208v-7.583A1.627,1.627,0,0,1,1.625,192h9.75A1.627,1.627,0,0,1,13,193.625v7.583A1.627,1.627,0,0,1,11.375,202.833Zm-9.75-9.75a.542.542,0,0,0-.542.542v7.583a.542.542,0,0,0,.542.542h9.75a.542.542,0,0,0,.542-.542v-7.583a.542.542,0,0,0-.542-.542Zm0,0" transform="translate(0 -185.5)" fill="#05abdb"/>
  <path id="Trazado_12" data-name="Trazado 12" d="M64.542,7.583A.542.542,0,0,1,64,7.042V4.333a4.333,4.333,0,1,1,8.667,0,.542.542,0,0,1-1.083,0,3.25,3.25,0,0,0-6.5,0V7.042A.542.542,0,0,1,64.542,7.583Zm0,0" transform="translate(-61.833)" fill="#05abdb"/>
</svg>
