<svg xmlns="http://www.w3.org/2000/svg" width="250" height="250" viewBox="0 0 250 250">
  <g id="person_figure" transform="translate(-58 -178)">
    <circle id="Elipse_3" data-name="Elipse 3" cx="125" cy="125" r="125" transform="translate(58 178)" fill="#fff"/>
    <g id="facial_reconocimiento" transform="translate(100 233)">
      <g id="Grupo_3" data-name="Grupo 3" transform="translate(32 8.25)">
        <g id="Grupo_2" data-name="Grupo 2">
          <path id="Trazado_13" data-name="Trazado 13" d="M127.6,115.391l-18.043-3.613a4.134,4.134,0,0,1-3.308-4.042v-4.142a48.637,48.637,0,0,0,3.457-6.154,35.269,35.269,0,0,1,2.8-4.983c3.5-3.424,7.227-7.664,8.366-13.208,1.04-5.016.008-7.623-1.2-9.686,0-4.034,0-11.426-1.4-16.739-.148-6.435-1.32-10.065-4.29-13.283-2.1-2.269-5.181-2.788-7.656-3.209a12.777,12.777,0,0,1-2.8-.652A28.883,28.883,0,0,0,89.593,32c-10.89.4-24.255,7.318-28.735,19.726-1.353,3.77-1.229,9.958-1.13,14.933l-.107,2.9c-1.048,2.063-2.079,4.67-1.048,9.677,1.147,5.552,4.876,9.8,8.374,13.217a37.362,37.362,0,0,1,2.83,5.008A50.562,50.562,0,0,0,73.25,103.6v4.133a4.134,4.134,0,0,1-3.308,4.042L51.9,115.391A24.813,24.813,0,0,0,32,139.654V147.5a8.258,8.258,0,0,0,8.25,8.25h99a8.258,8.258,0,0,0,8.25-8.25v-7.846A24.813,24.813,0,0,0,127.6,115.391ZM139.25,147.5h-99v-7.846a16.541,16.541,0,0,1,13.258-16.178l18.043-3.613a12.391,12.391,0,0,0,9.95-12.127v-5.61a4.119,4.119,0,0,0-1.229-2.937,35.038,35.038,0,0,1-3.143-5.478c-1.559-3.044-2.9-5.668-4.414-7.153-2.739-2.673-5.371-5.618-6.064-8.984-.528-2.6-.157-3.333.314-4.265a7.89,7.89,0,0,0,1.056-3.746L67.978,66.5c-.066-3.605-.2-9.644.644-11.971,3.2-8.877,13.357-13.984,21.021-14.281a20.217,20.217,0,0,1,9.892,2.632,16.882,16.882,0,0,0,5.428,1.576,14.752,14.752,0,0,1,2.962.668c1.114,1.2,2.038,2.673,2.112,8.341a4.469,4.469,0,0,0,.165,1.1c1.229,4.216,1.229,11.5,1.229,14.99a7.89,7.89,0,0,0,1.056,3.746c.479.932.85,1.666.305,4.282-.685,3.358-3.308,6.295-6.047,8.968-1.534,1.493-2.863,4.125-4.389,7.161a36.144,36.144,0,0,1-3.127,5.478A4.119,4.119,0,0,0,98,102.125v5.61a12.414,12.414,0,0,0,9.949,12.136l18.043,3.613a16.525,16.525,0,0,1,13.258,16.17Z" transform="translate(-32 -32)" fill="#05abdb"/>
        </g>
      </g>
      <g id="Grupo_5" data-name="Grupo 5" transform="translate(32)">
        <g id="Grupo_4" data-name="Grupo 4">
          <path id="Trazado_14" data-name="Trazado 14" d="M52.625,0h-16.5A4.127,4.127,0,0,0,32,4.125v24.75a4.125,4.125,0,0,0,8.25,0V8.25H52.625a4.125,4.125,0,1,0,0-8.25Z" transform="translate(-32)" fill="#05abdb"/>
        </g>
      </g>
      <g id="Grupo_7" data-name="Grupo 7" transform="translate(32 49.5)">
        <g id="Grupo_6" data-name="Grupo 6">
          <path id="Trazado_15" data-name="Trazado 15" d="M52.625,216.75H40.25V196.125a4.125,4.125,0,0,0-8.25,0v24.75A4.127,4.127,0,0,0,36.125,225h16.5a4.125,4.125,0,1,0,0-8.25Z" transform="translate(-32 -192)" fill="#05abdb"/>
        </g>
      </g>
      <g id="Grupo_9" data-name="Grupo 9" transform="translate(122.75)">
        <g id="Grupo_8" data-name="Grupo 8">
          <path id="Trazado_16" data-name="Trazado 16" d="M404.625,0h-16.5a4.125,4.125,0,0,0,0,8.25H400.5V28.875a4.125,4.125,0,1,0,8.25,0V4.125A4.126,4.126,0,0,0,404.625,0Z" transform="translate(-384)" fill="#05abdb"/>
        </g>
      </g>
      <g id="Grupo_11" data-name="Grupo 11" transform="translate(122.75 49.5)">
        <g id="Grupo_10" data-name="Grupo 10">
          <path id="Trazado_17" data-name="Trazado 17" d="M404.625,192a4.126,4.126,0,0,0-4.125,4.125V216.75H388.125a4.125,4.125,0,1,0,0,8.25h16.5a4.126,4.126,0,0,0,4.125-4.125v-24.75A4.126,4.126,0,0,0,404.625,192Z" transform="translate(-384 -192)" fill="#05abdb"/>
        </g>
      </g>
    </g>
  </g>
</svg>
